<svg width="350" height="350" viewBox="0 0 350 350" fill="none" xmlns="http://www.w3.org/2000/svg">
<g clip-path="url(#clip0_19_90)">
<rect width="350" height="350" fill="white"/>
<rect width="601.719" height="601.719" fill="#8A40F1"/>
<g filter="url(#filter0_d_19_90)">
<mask id="path-4-outside-1_19_90" maskUnits="userSpaceOnUse" x="33.5" y="115.984" width="286" height="135" fill="black">
<rect fill="white" x="33.5" y="115.984" width="286" height="135"/>
<path d="M110.73 207.48L103.706 226.593L100.275 229.534L79.8551 231.821L80.1818 227.573C81.4887 209.93 82.1966 198.822 82.3055 194.247C77.7314 201.435 73.7018 206.118 70.2167 208.297C68.2564 209.495 65.9149 210.475 63.1922 211.237C60.5784 211.891 58.019 212.217 55.5142 212.217C49.7421 212.217 45.1135 210.42 41.6284 206.826C38.1434 203.232 36.4009 199.094 36.4009 194.411C36.4009 188.53 38.4156 182.104 42.4452 175.134C46.5837 168.055 51.5935 162.065 57.4745 157.164C63.3555 152.263 68.7465 149.813 73.6473 149.813C82.3599 149.813 89.0578 153.026 93.7408 159.451C98.5328 165.877 100.929 174.916 100.929 186.569C100.82 188.857 100.656 191.906 100.439 195.718C100.221 199.529 100.003 202.851 99.7852 205.683L109.75 204.703L110.73 207.48ZM69.0732 189.51C73.7562 189.51 77.8403 188.366 81.3253 186.079C80.0184 181.941 77.5135 179 73.8107 177.258C70.1078 175.515 65.1525 174.644 58.9448 174.644C55.4597 174.644 52.3558 175.134 49.6331 176.114C50.3955 180.035 52.6826 183.248 56.4943 185.753C60.3061 188.258 64.4991 189.51 69.0732 189.51ZM58.7814 127.433L88.3499 119.428L85.0826 136.254L56.0043 142.625L58.7814 127.433ZM109.734 205.029L154.331 200.292L155.312 203.069L148.287 222.182L144.856 225.123L100.259 229.86L109.734 205.029ZM154.243 201.029L198.841 196.292L199.821 199.069L192.797 218.182L189.366 221.123L144.768 225.86L154.243 201.029ZM198.753 196.029L243.351 191.292L244.331 194.069L237.306 213.182L233.876 216.123L189.278 220.86L198.753 196.029ZM290.148 189.48L283.123 208.593L279.692 211.534L259.599 213.657L260.579 192.91C258.292 201.078 256.005 207.558 253.718 212.35C247.837 214.311 241.193 215.672 233.788 216.434L243.263 191.603C249.906 190.841 255.733 189.752 260.742 188.336L261.396 172.163L277.242 163.995L276.098 188.009L289.167 186.703L290.148 189.48ZM245.06 232.607L274.628 224.603L271.361 241.429L242.283 247.8L245.06 232.607ZM311.102 168.96C309.578 183.445 306.038 196.351 300.484 207.677C295.474 209.202 288.504 210.454 279.574 211.434L289.049 186.603C294.494 185.95 298.905 185.133 302.281 184.153C303.806 178.163 305.004 173.044 305.875 168.797L311.102 168.96ZM301.464 155.238C297.652 152.297 293.841 147.614 290.029 141.189L305.221 131.06L307.509 134.818C310.558 139.828 313.117 143.639 315.187 146.253L301.464 155.238Z"/>
</mask>
<path d="M110.73 207.48L113.03 208.325L113.335 207.497L113.041 206.664L110.73 207.48ZM103.706 226.593L105.301 228.454L105.786 228.038L106.006 227.438L103.706 226.593ZM100.275 229.534L100.548 231.969L101.297 231.885L101.87 231.394L100.275 229.534ZM79.8551 231.821L77.4119 231.633L77.1847 234.585L80.1278 234.256L79.8551 231.821ZM80.1818 227.573L82.625 227.761L82.6255 227.754L80.1818 227.573ZM82.3055 194.247L84.7552 194.306L84.9648 185.504L80.2382 192.932L82.3055 194.247ZM70.2167 208.297L71.4945 210.387L71.505 210.381L71.5154 210.375L70.2167 208.297ZM63.1922 211.237L63.7865 213.614L63.8198 213.606L63.8529 213.597L63.1922 211.237ZM41.6284 206.826L43.3876 205.12L43.3876 205.12L41.6284 206.826ZM42.4452 175.134L40.3298 173.897L40.3238 173.908L42.4452 175.134ZM57.4745 157.164L55.9058 155.282L55.9058 155.282L57.4745 157.164ZM93.7408 159.451L91.7605 160.895L91.7684 160.906L91.7765 160.916L93.7408 159.451ZM100.929 186.569L103.376 186.686L103.379 186.628V186.569H100.929ZM100.439 195.718L97.9922 195.578L97.9922 195.578L100.439 195.718ZM99.7852 205.683L97.342 205.495L97.1179 208.407L100.025 208.121L99.7852 205.683ZM109.75 204.703L112.061 203.887L111.422 202.076L109.51 202.264L109.75 204.703ZM81.3253 186.079L82.6698 188.128L84.2206 187.11L83.662 185.341L81.3253 186.079ZM73.8107 177.258L72.7673 179.475L72.7673 179.475L73.8107 177.258ZM49.6331 176.114L48.8031 173.809L46.8269 174.52L47.2278 176.582L49.6331 176.114ZM56.4943 185.753L57.8401 183.705L57.8401 183.705L56.4943 185.753ZM58.7814 127.433L58.1411 125.067L56.6489 125.471L56.3709 126.992L58.7814 127.433ZM88.3499 119.428L90.7554 119.895L91.5049 116.035L87.7095 117.063L88.3499 119.428ZM85.0826 136.254L85.6071 138.648L87.181 138.303L87.4881 136.721L85.0826 136.254ZM56.0043 142.625L53.5938 142.185L52.9316 145.807L56.5287 145.019L56.0043 142.625ZM108.43 206.634L101.406 225.748L106.006 227.438L113.03 208.325L108.43 206.634ZM102.111 224.733L98.6806 227.673L101.87 231.394L105.301 228.454L102.111 224.733ZM100.003 227.098L79.5823 229.385L80.1278 234.256L100.548 231.969L100.003 227.098ZM82.2983 232.009L82.625 227.761L77.7386 227.385L77.4119 231.633L82.2983 232.009ZM82.6255 227.754C83.9308 210.133 84.6445 198.955 84.7552 194.306L79.8558 194.189C79.7486 198.688 79.0465 209.728 77.7381 227.392L82.6255 227.754ZM80.2382 192.932C75.6937 200.073 71.9083 204.35 68.918 206.219L71.5154 210.375C75.4953 207.887 79.7691 202.798 84.3728 195.563L80.2382 192.932ZM68.9389 206.206C67.2092 207.263 65.085 208.162 62.5315 208.877L63.8529 213.597C66.7448 212.787 69.3035 211.726 71.4945 210.387L68.9389 206.206ZM62.5979 208.86C60.1639 209.468 57.8042 209.767 55.5142 209.767V214.668C58.2339 214.668 60.9929 214.313 63.7865 213.614L62.5979 208.86ZM55.5142 209.767C50.2946 209.767 46.3395 208.165 43.3876 205.12L39.8693 208.532C43.8874 212.676 49.1895 214.668 55.5142 214.668V209.767ZM43.3876 205.12C40.3122 201.949 38.8513 198.41 38.8513 194.411H33.9504C33.9504 199.778 35.9746 204.516 39.8693 208.532L43.3876 205.12ZM38.8513 194.411C38.8513 189.091 40.6764 183.09 44.5667 176.361L40.3238 173.908C36.1549 181.119 33.9504 187.969 33.9504 194.411H38.8513ZM44.5607 176.371C48.566 169.52 53.3956 163.753 59.0432 159.047L55.9058 155.282C49.7914 160.377 44.6015 166.591 40.3298 173.897L44.5607 176.371ZM59.0432 159.047C64.7184 154.318 69.5647 152.263 73.6473 152.263V147.363C67.9282 147.363 61.9927 150.209 55.9058 155.282L59.0432 159.047ZM73.6473 152.263C81.664 152.263 87.5877 155.169 91.7605 160.895L95.7211 158.008C90.5278 150.882 83.0559 147.363 73.6473 147.363V152.263ZM91.7765 160.916C96.1384 166.765 98.4783 175.214 98.4783 186.569H103.379C103.379 174.619 100.927 164.989 95.7051 157.986L91.7765 160.916ZM98.4811 186.453C98.3727 188.729 98.2098 191.77 97.9922 195.578L102.885 195.858C103.103 192.042 103.267 188.984 103.376 186.686L98.4811 186.453ZM97.9922 195.578C97.775 199.379 97.5582 202.684 97.342 205.495L102.228 205.871C102.448 203.019 102.667 199.68 102.885 195.858L97.9922 195.578ZM100.025 208.121L109.99 207.141L109.51 202.264L99.5453 203.244L100.025 208.121ZM107.44 205.518L108.42 208.295L113.041 206.664L112.061 203.887L107.44 205.518ZM69.0732 191.96C74.173 191.96 78.7372 190.709 82.6698 188.128L79.9809 184.031C76.9433 186.024 73.3394 187.06 69.0732 187.06V191.96ZM83.662 185.341C82.1632 180.595 79.2164 177.093 74.8541 175.041L72.7673 179.475C75.8107 180.907 77.8736 183.286 78.9886 186.817L83.662 185.341ZM74.8541 175.041C70.7001 173.086 65.3439 172.194 58.9448 172.194V177.094C64.9611 177.094 69.5155 177.945 72.7673 179.475L74.8541 175.041ZM58.9448 172.194C55.2329 172.194 51.8402 172.715 48.8031 173.809L50.4632 178.42C52.8715 177.553 55.6865 177.094 58.9448 177.094V172.194ZM47.2278 176.582C48.1344 181.245 50.8707 184.989 55.1486 187.8L57.8401 183.705C54.4945 181.506 52.6566 178.825 52.0385 175.647L47.2278 176.582ZM55.1486 187.8C59.3613 190.569 64.0223 191.96 69.0732 191.96V187.06C64.9759 187.06 61.2509 185.946 57.8401 183.705L55.1486 187.8ZM59.4217 129.798L88.9902 121.793L87.7095 117.063L58.1411 125.067L59.4217 129.798ZM85.9444 118.961L82.6771 135.787L87.4881 136.721L90.7554 119.895L85.9444 118.961ZM84.5582 133.86L55.4798 140.232L56.5287 145.019L85.6071 138.648L84.5582 133.86ZM58.4147 143.066L61.1919 127.873L56.3709 126.992L53.5938 142.185L58.4147 143.066ZM109.734 205.029L109.475 202.593L107.98 202.751L107.444 204.156L109.734 205.029ZM154.331 200.292L156.642 199.476L155.998 197.651L154.073 197.855L154.331 200.292ZM155.312 203.069L157.612 203.914L157.916 203.086L157.622 202.253L155.312 203.069ZM148.287 222.182L149.882 224.043L150.367 223.627L150.587 223.028L148.287 222.182ZM144.856 225.123L145.115 227.56L145.873 227.479L146.451 226.983L144.856 225.123ZM100.259 229.86L97.9693 228.987L96.5451 232.719L100.518 232.297L100.259 229.86ZM109.993 207.466L154.59 202.729L154.073 197.855L109.475 202.593L109.993 207.466ZM152.021 201.107L153.001 203.885L157.622 202.253L156.642 199.476L152.021 201.107ZM153.012 202.224L145.987 221.337L150.587 223.028L157.612 203.914L153.012 202.224ZM146.692 220.322L143.262 223.262L146.451 226.983L149.882 224.043L146.692 220.322ZM144.598 222.686L99.9998 227.424L100.518 232.297L145.115 227.56L144.598 222.686ZM102.548 230.734L112.023 205.903L107.444 204.156L97.9693 228.987L102.548 230.734ZM154.243 201.029L153.984 198.593L152.49 198.751L151.954 200.156L154.243 201.029ZM198.841 196.292L201.152 195.476L200.507 193.651L198.582 193.855L198.841 196.292ZM199.821 199.069L202.121 199.914L202.426 199.086L202.132 198.253L199.821 199.069ZM192.797 218.182L194.391 220.043L194.876 219.627L195.097 219.028L192.797 218.182ZM189.366 221.123L189.625 223.56L190.382 223.479L190.961 222.983L189.366 221.123ZM144.768 225.86L142.479 224.987L141.055 228.719L145.027 228.297L144.768 225.86ZM154.502 203.466L199.1 198.729L198.582 193.855L153.984 198.593L154.502 203.466ZM196.53 197.107L197.511 199.885L202.132 198.253L201.152 195.476L196.53 197.107ZM197.521 198.224L190.497 217.337L195.097 219.028L202.121 199.914L197.521 198.224ZM191.202 216.322L187.771 219.262L190.961 222.983L194.391 220.043L191.202 216.322ZM189.107 218.686L144.51 223.424L145.027 228.297L189.625 223.56L189.107 218.686ZM147.058 226.734L156.533 201.903L151.954 200.156L142.479 224.987L147.058 226.734ZM198.753 196.029L198.494 193.593L196.999 193.751L196.464 195.156L198.753 196.029ZM243.351 191.292L245.661 190.476L245.017 188.651L243.092 188.855L243.351 191.292ZM244.331 194.069L246.631 194.914L246.935 194.086L246.642 193.253L244.331 194.069ZM237.306 213.182L238.901 215.043L239.386 214.627L239.606 214.028L237.306 213.182ZM233.876 216.123L234.135 218.56L234.892 218.479L235.471 217.983L233.876 216.123ZM189.278 220.86L186.989 219.987L185.564 223.719L189.537 223.297L189.278 220.86ZM199.012 198.466L243.61 193.729L243.092 188.855L198.494 193.593L199.012 198.466ZM241.04 192.107L242.02 194.885L246.642 193.253L245.661 190.476L241.04 192.107ZM242.031 193.224L235.006 212.337L239.606 214.028L246.631 194.914L242.031 193.224ZM235.712 211.322L232.281 214.262L235.471 217.983L238.901 215.043L235.712 211.322ZM233.617 213.686L189.019 218.424L189.537 223.297L234.135 218.56L233.617 213.686ZM191.567 221.734L201.042 196.903L196.464 195.156L186.989 219.987L191.567 221.734ZM290.148 189.48L292.448 190.325L292.752 189.497L292.458 188.664L290.148 189.48ZM283.123 208.593L284.718 210.454L285.203 210.038L285.423 209.438L283.123 208.593ZM279.692 211.534L279.95 213.97L280.708 213.89L281.287 213.394L279.692 211.534ZM259.599 213.657L257.151 213.542L257.016 216.394L259.856 216.094L259.599 213.657ZM260.579 192.91L263.027 193.026L258.219 192.25L260.579 192.91ZM253.718 212.35L254.493 214.675L255.481 214.346L255.929 213.406L253.718 212.35ZM233.788 216.434L231.498 215.561L230.079 219.28L234.039 218.872L233.788 216.434ZM243.263 191.603L242.983 189.169L241.504 189.339L240.973 190.73L243.263 191.603ZM260.742 188.336L261.409 190.694L263.119 190.211L263.191 188.435L260.742 188.336ZM261.396 172.163L260.273 169.985L259.005 170.639L258.947 172.064L261.396 172.163ZM277.242 163.995L279.69 164.112L279.891 159.873L276.119 161.817L277.242 163.995ZM276.098 188.009L273.651 187.893L273.516 190.73L276.342 190.448L276.098 188.009ZM289.167 186.703L291.478 185.887L290.838 184.073L288.924 184.264L289.167 186.703ZM245.06 232.607L244.419 230.242L242.927 230.646L242.649 232.167L245.06 232.607ZM274.628 224.603L277.034 225.07L277.783 221.21L273.988 222.237L274.628 224.603ZM271.361 241.429L271.885 243.822L273.459 243.478L273.766 241.896L271.361 241.429ZM242.283 247.8L239.872 247.359L239.21 250.982L242.807 250.194L242.283 247.8ZM287.848 188.634L280.823 207.748L285.423 209.438L292.448 190.325L287.848 188.634ZM281.528 206.733L278.098 209.673L281.287 213.394L284.718 210.454L281.528 206.733ZM279.435 209.097L259.341 211.22L259.856 216.094L279.95 213.97L279.435 209.097ZM262.047 213.773L263.027 193.026L258.131 192.795L257.151 213.542L262.047 213.773ZM258.219 192.25C255.951 200.352 253.708 206.682 251.506 211.295L255.929 213.406C258.302 208.435 260.633 201.805 262.939 193.571L258.219 192.25ZM252.943 210.026C247.262 211.919 240.799 213.249 233.537 213.997L234.039 218.872C241.588 218.095 248.412 216.702 254.493 214.675L252.943 210.026ZM236.077 217.308L245.552 192.477L240.973 190.73L231.498 215.561L236.077 217.308ZM243.542 194.038C250.282 193.265 256.243 192.154 261.409 190.694L260.076 185.978C255.223 187.35 249.531 188.418 242.983 189.169L243.542 194.038ZM263.191 188.435L263.844 172.262L258.947 172.064L258.294 188.237L263.191 188.435ZM262.519 174.342L278.365 166.173L276.119 161.817L260.273 169.985L262.519 174.342ZM274.794 163.879L273.651 187.893L278.546 188.126L279.69 164.112L274.794 163.879ZM276.342 190.448L289.411 189.141L288.924 184.264L275.855 185.571L276.342 190.448ZM286.857 187.518L287.837 190.295L292.458 188.664L291.478 185.887L286.857 187.518ZM245.7 234.973L275.268 226.968L273.988 222.237L244.419 230.242L245.7 234.973ZM272.223 224.135L268.955 240.962L273.766 241.896L277.034 225.07L272.223 224.135ZM270.836 239.035L241.758 245.406L242.807 250.194L271.885 243.822L270.836 239.035ZM244.693 248.241L247.47 233.048L242.649 232.167L239.872 247.359L244.693 248.241ZM311.102 168.96L313.539 169.217L313.816 166.594L311.179 166.511L311.102 168.96ZM300.484 207.677L301.197 210.021L302.216 209.712L302.684 208.756L300.484 207.677ZM279.574 211.434L277.284 210.561L275.855 214.308L279.841 213.87L279.574 211.434ZM289.049 186.603L288.757 184.17L287.287 184.347L286.759 185.73L289.049 186.603ZM302.281 184.153L302.964 186.506L304.31 186.116L304.656 184.757L302.281 184.153ZM305.875 168.797L305.951 166.348L303.889 166.283L303.474 168.305L305.875 168.797ZM301.464 155.238L299.967 157.178L301.348 158.243L302.806 157.288L301.464 155.238ZM290.029 141.189L288.67 139.15L286.735 140.44L287.921 142.439L290.029 141.189ZM305.221 131.06L307.315 129.786L305.987 127.605L303.862 129.022L305.221 131.06ZM307.509 134.818L305.415 136.092L305.415 136.092L307.509 134.818ZM315.187 146.253L316.529 148.303L318.772 146.834L317.108 144.732L315.187 146.253ZM308.666 168.704C307.166 182.946 303.694 195.566 298.284 206.598L302.684 208.756C308.383 197.135 311.989 183.944 313.539 169.217L308.666 168.704ZM299.77 205.333C294.973 206.793 288.176 208.025 279.306 208.999L279.841 213.87C288.832 212.883 295.975 211.611 301.197 210.021L299.77 205.333ZM281.863 212.308L291.338 187.477L286.759 185.73L277.284 210.561L281.863 212.308ZM289.341 189.036C294.854 188.375 299.41 187.538 302.964 186.506L301.598 181.8C298.4 182.728 294.134 183.525 288.757 184.17L289.341 189.036ZM304.656 184.757C306.186 178.745 307.394 173.586 308.275 169.289L303.474 168.305C302.613 172.502 301.425 177.582 299.906 183.549L304.656 184.757ZM305.798 171.246L311.026 171.41L311.179 166.511L305.951 166.348L305.798 171.246ZM302.961 153.298C299.492 150.622 295.868 146.229 292.136 139.939L287.921 142.439C291.813 149 295.813 153.973 299.967 157.178L302.961 153.298ZM291.388 143.228L306.581 133.099L303.862 129.022L288.67 139.15L291.388 143.228ZM303.128 132.335L305.415 136.092L309.602 133.544L307.315 129.786L303.128 132.335ZM305.415 136.092C308.484 141.134 311.104 145.044 313.265 147.774L317.108 144.732C315.13 142.234 312.632 138.522 309.602 133.544L305.415 136.092ZM313.844 144.203L300.122 153.188L302.806 157.288L316.529 148.303L313.844 144.203Z" fill="white" mask="url(#path-4-outside-1_19_90)"/>
</g>
<path d="M110.73 201.746L103.706 220.859L100.275 223.8L79.8551 226.087L80.1818 221.839C81.4887 204.196 82.1966 193.088 82.3055 188.513C77.7314 195.701 73.7018 200.384 70.2167 202.563C68.2564 203.761 65.9149 204.741 63.1922 205.503C60.5784 206.157 58.019 206.483 55.5142 206.483C49.7421 206.483 45.1135 204.686 41.6284 201.092C38.1434 197.498 36.4009 193.36 36.4009 188.677C36.4009 182.796 38.4156 176.37 42.4452 169.4C46.5837 162.321 51.5935 156.331 57.4745 151.43C63.3555 146.529 68.7465 144.079 73.6473 144.079C82.3599 144.079 89.0578 147.292 93.7408 153.717C98.5328 160.143 100.929 169.182 100.929 180.835C100.82 183.123 100.656 186.172 100.439 189.984C100.221 193.795 100.003 197.117 99.7852 199.949L109.75 198.969L110.73 201.746ZM69.0732 183.776C73.7562 183.776 77.8403 182.632 81.3253 180.345C80.0184 176.207 77.5135 173.266 73.8107 171.524C70.1078 169.781 65.1525 168.91 58.9448 168.91C55.4597 168.91 52.3558 169.4 49.6331 170.38C50.3955 174.301 52.6826 177.514 56.4943 180.019C60.3061 182.524 64.4991 183.776 69.0732 183.776ZM58.7814 121.699L88.3499 113.694L85.0826 130.52L56.0043 136.891L58.7814 121.699ZM109.734 199.295L154.331 194.558L155.312 197.335L148.287 216.448L144.856 219.389L100.259 224.126L109.734 199.295ZM154.243 195.295L198.841 190.558L199.821 193.335L192.797 212.448L189.366 215.389L144.768 220.126L154.243 195.295ZM198.753 190.295L243.351 185.558L244.331 188.335L237.306 207.448L233.876 210.389L189.278 215.126L198.753 190.295ZM290.148 183.746L283.123 202.859L279.692 205.8L259.599 207.923L260.579 187.176C258.292 195.344 256.005 201.824 253.718 206.616C247.837 208.577 241.193 209.938 233.788 210.7L243.263 185.869C249.906 185.107 255.733 184.018 260.742 182.602L261.396 166.429L277.242 158.261L276.098 182.275L289.167 180.969L290.148 183.746ZM245.06 226.873L274.628 218.869L271.361 235.695L242.283 242.066L245.06 226.873ZM311.102 163.226C309.578 177.711 306.038 190.617 300.484 201.943C295.474 203.468 288.504 204.72 279.574 205.7L289.049 180.869C294.494 180.216 298.905 179.399 302.281 178.419C303.806 172.429 305.004 167.31 305.875 163.063L311.102 163.226ZM301.464 149.504C297.652 146.563 293.841 141.88 290.029 135.455L305.221 125.326L307.509 129.084C310.558 134.094 313.117 137.905 315.187 140.519L301.464 149.504Z" fill="white"/>
<mask id="path-8-outside-2_19_90" maskUnits="userSpaceOnUse" x="33.5" y="110.25" width="286" height="135" fill="black">
<rect fill="white" x="33.5" y="110.25" width="286" height="135"/>
<path d="M110.73 201.746L103.706 220.859L100.275 223.8L79.8551 226.087L80.1818 221.839C81.4887 204.196 82.1966 193.088 82.3055 188.513C77.7314 195.701 73.7018 200.384 70.2167 202.563C68.2564 203.761 65.9149 204.741 63.1922 205.503C60.5784 206.157 58.019 206.483 55.5142 206.483C49.7421 206.483 45.1135 204.686 41.6284 201.092C38.1434 197.498 36.4009 193.36 36.4009 188.677C36.4009 182.796 38.4156 176.37 42.4452 169.4C46.5837 162.321 51.5935 156.331 57.4745 151.43C63.3555 146.529 68.7465 144.079 73.6473 144.079C82.3599 144.079 89.0578 147.292 93.7408 153.717C98.5328 160.143 100.929 169.182 100.929 180.835C100.82 183.123 100.656 186.172 100.439 189.984C100.221 193.795 100.003 197.117 99.7852 199.949L109.75 198.969L110.73 201.746ZM69.0732 183.776C73.7562 183.776 77.8403 182.632 81.3253 180.345C80.0184 176.207 77.5135 173.266 73.8107 171.524C70.1078 169.781 65.1525 168.91 58.9448 168.91C55.4597 168.91 52.3558 169.4 49.6331 170.38C50.3955 174.301 52.6826 177.514 56.4943 180.019C60.3061 182.524 64.4991 183.776 69.0732 183.776ZM58.7814 121.699L88.3499 113.694L85.0826 130.52L56.0043 136.891L58.7814 121.699ZM109.734 199.295L154.331 194.558L155.312 197.335L148.287 216.448L144.856 219.389L100.259 224.126L109.734 199.295ZM154.243 195.295L198.841 190.558L199.821 193.335L192.797 212.448L189.366 215.389L144.768 220.126L154.243 195.295ZM198.753 190.295L243.351 185.558L244.331 188.335L237.306 207.448L233.876 210.389L189.278 215.126L198.753 190.295ZM290.148 183.746L283.123 202.859L279.692 205.8L259.599 207.923L260.579 187.176C258.292 195.344 256.005 201.824 253.718 206.616C247.837 208.577 241.193 209.938 233.788 210.7L243.263 185.869C249.906 185.107 255.733 184.018 260.742 182.602L261.396 166.429L277.242 158.261L276.098 182.275L289.167 180.969L290.148 183.746ZM245.06 226.873L274.628 218.869L271.361 235.695L242.283 242.066L245.06 226.873ZM311.102 163.226C309.578 177.711 306.038 190.617 300.484 201.943C295.474 203.468 288.504 204.72 279.574 205.7L289.049 180.869C294.494 180.216 298.905 179.399 302.281 178.419C303.806 172.429 305.004 167.31 305.875 163.063L311.102 163.226ZM301.464 149.504C297.652 146.563 293.841 141.88 290.029 135.455L305.221 125.326L307.509 129.084C310.558 134.094 313.117 137.905 315.187 140.519L301.464 149.504Z"/>
</mask>
<path d="M110.73 201.746L113.03 202.591L113.335 201.763L113.041 200.93L110.73 201.746ZM103.706 220.859L105.301 222.72L105.786 222.304L106.006 221.704L103.706 220.859ZM100.275 223.8L100.548 226.235L101.297 226.151L101.87 225.66L100.275 223.8ZM79.8551 226.087L77.4119 225.899L77.1847 228.851L80.1278 228.522L79.8551 226.087ZM80.1818 221.839L82.625 222.027L82.6255 222.02L80.1818 221.839ZM82.3055 188.513L84.7552 188.572L84.9648 179.77L80.2382 187.198L82.3055 188.513ZM70.2167 202.563L71.4945 204.653L71.505 204.647L71.5154 204.641L70.2167 202.563ZM63.1922 205.503L63.7865 207.88L63.8198 207.872L63.8529 207.863L63.1922 205.503ZM41.6284 201.092L43.3876 199.386L43.3876 199.386L41.6284 201.092ZM42.4452 169.4L40.3298 168.163L40.3238 168.174L42.4452 169.4ZM57.4745 151.43L55.9058 149.548L55.9058 149.548L57.4745 151.43ZM93.7408 153.717L91.7605 155.161L91.7684 155.172L91.7765 155.182L93.7408 153.717ZM100.929 180.835L103.376 180.952L103.379 180.894V180.835H100.929ZM100.439 189.984L97.9922 189.844L97.9922 189.844L100.439 189.984ZM99.7852 199.949L97.342 199.761L97.1179 202.673L100.025 202.387L99.7852 199.949ZM109.75 198.969L112.061 198.153L111.422 196.342L109.51 196.53L109.75 198.969ZM81.3253 180.345L82.6698 182.394L84.2206 181.376L83.662 179.607L81.3253 180.345ZM73.8107 171.524L72.7673 173.741L72.7673 173.741L73.8107 171.524ZM49.6331 170.38L48.8031 168.075L46.8269 168.786L47.2278 170.848L49.6331 170.38ZM56.4943 180.019L57.8401 177.971L57.8401 177.971L56.4943 180.019ZM58.7814 121.699L58.1411 119.333L56.6489 119.737L56.3709 121.258L58.7814 121.699ZM88.3499 113.694L90.7554 114.161L91.5049 110.301L87.7095 111.329L88.3499 113.694ZM85.0826 130.52L85.6071 132.914L87.181 132.569L87.4881 130.987L85.0826 130.52ZM56.0043 136.891L53.5938 136.451L52.9316 140.073L56.5287 139.285L56.0043 136.891ZM108.43 200.9L101.406 220.014L106.006 221.704L113.03 202.591L108.43 200.9ZM102.111 218.999L98.6806 221.939L101.87 225.66L105.301 222.72L102.111 218.999ZM100.003 221.364L79.5823 223.651L80.1278 228.522L100.548 226.235L100.003 221.364ZM82.2983 226.275L82.625 222.027L77.7386 221.651L77.4119 225.899L82.2983 226.275ZM82.6255 222.02C83.9308 204.399 84.6445 193.221 84.7552 188.572L79.8558 188.455C79.7486 192.954 79.0465 203.994 77.7381 221.658L82.6255 222.02ZM80.2382 187.198C75.6937 194.339 71.9083 198.616 68.918 200.485L71.5154 204.641C75.4953 202.153 79.7691 197.064 84.3728 189.829L80.2382 187.198ZM68.9389 200.472C67.2092 201.529 65.085 202.428 62.5315 203.143L63.8529 207.863C66.7448 207.053 69.3035 205.992 71.4945 204.653L68.9389 200.472ZM62.5979 203.126C60.1639 203.734 57.8042 204.033 55.5142 204.033V208.934C58.2339 208.934 60.9929 208.579 63.7865 207.88L62.5979 203.126ZM55.5142 204.033C50.2946 204.033 46.3395 202.431 43.3876 199.386L39.8693 202.798C43.8874 206.942 49.1895 208.934 55.5142 208.934V204.033ZM43.3876 199.386C40.3122 196.215 38.8513 192.676 38.8513 188.677H33.9504C33.9504 194.044 35.9746 198.782 39.8693 202.798L43.3876 199.386ZM38.8513 188.677C38.8513 183.357 40.6764 177.356 44.5667 170.627L40.3238 168.174C36.1549 175.385 33.9504 182.235 33.9504 188.677H38.8513ZM44.5607 170.637C48.566 163.786 53.3956 158.019 59.0432 153.313L55.9058 149.548C49.7914 154.643 44.6015 160.857 40.3298 168.163L44.5607 170.637ZM59.0432 153.313C64.7184 148.584 69.5647 146.529 73.6473 146.529V141.629C67.9282 141.629 61.9927 144.475 55.9058 149.548L59.0432 153.313ZM73.6473 146.529C81.664 146.529 87.5877 149.435 91.7605 155.161L95.7211 152.274C90.5278 145.148 83.0559 141.629 73.6473 141.629V146.529ZM91.7765 155.182C96.1384 161.031 98.4783 169.48 98.4783 180.835H103.379C103.379 168.885 100.927 159.255 95.7051 152.252L91.7765 155.182ZM98.4811 180.719C98.3727 182.995 98.2098 186.036 97.9922 189.844L102.885 190.123C103.103 186.308 103.267 183.25 103.376 180.952L98.4811 180.719ZM97.9922 189.844C97.775 193.645 97.5582 196.95 97.342 199.761L102.228 200.137C102.448 197.285 102.667 193.946 102.885 190.123L97.9922 189.844ZM100.025 202.387L109.99 201.407L109.51 196.53L99.5453 197.51L100.025 202.387ZM107.44 199.784L108.42 202.561L113.041 200.93L112.061 198.153L107.44 199.784ZM69.0732 186.226C74.173 186.226 78.7372 184.975 82.6698 182.394L79.9809 178.297C76.9433 180.29 73.3394 181.326 69.0732 181.326V186.226ZM83.662 179.607C82.1632 174.861 79.2164 171.359 74.8541 169.307L72.7673 173.741C75.8107 175.173 77.8736 177.552 78.9886 181.083L83.662 179.607ZM74.8541 169.307C70.7001 167.352 65.3439 166.46 58.9448 166.46V171.36C64.9611 171.36 69.5155 172.211 72.7673 173.741L74.8541 169.307ZM58.9448 166.46C55.2329 166.46 51.8402 166.981 48.8031 168.075L50.4632 172.686C52.8715 171.819 55.6865 171.36 58.9448 171.36V166.46ZM47.2278 170.848C48.1344 175.511 50.8707 179.255 55.1486 182.066L57.8401 177.971C54.4945 175.772 52.6566 173.091 52.0385 169.913L47.2278 170.848ZM55.1486 182.066C59.3613 184.835 64.0223 186.226 69.0732 186.226V181.326C64.9759 181.326 61.2509 180.212 57.8401 177.971L55.1486 182.066ZM59.4217 124.064L88.9902 116.059L87.7095 111.329L58.1411 119.333L59.4217 124.064ZM85.9444 113.227L82.6771 130.053L87.4881 130.987L90.7554 114.161L85.9444 113.227ZM84.5582 128.126L55.4798 134.497L56.5287 139.285L85.6071 132.914L84.5582 128.126ZM58.4147 137.332L61.1919 122.139L56.3709 121.258L53.5938 136.451L58.4147 137.332ZM109.734 199.295L109.475 196.859L107.98 197.017L107.444 198.422L109.734 199.295ZM154.331 194.558L156.642 193.742L155.998 191.917L154.073 192.121L154.331 194.558ZM155.312 197.335L157.612 198.18L157.916 197.352L157.622 196.519L155.312 197.335ZM148.287 216.448L149.882 218.309L150.367 217.893L150.587 217.294L148.287 216.448ZM144.856 219.389L145.115 221.826L145.873 221.745L146.451 221.249L144.856 219.389ZM100.259 224.126L97.9693 223.253L96.5451 226.985L100.518 226.563L100.259 224.126ZM109.993 201.732L154.59 196.995L154.073 192.121L109.475 196.859L109.993 201.732ZM152.021 195.373L153.001 198.151L157.622 196.519L156.642 193.742L152.021 195.373ZM153.012 196.49L145.987 215.603L150.587 217.294L157.612 198.18L153.012 196.49ZM146.692 214.588L143.262 217.528L146.451 221.249L149.882 218.309L146.692 214.588ZM144.598 216.952L99.9998 221.69L100.518 226.563L145.115 221.826L144.598 216.952ZM102.548 225L112.023 200.169L107.444 198.422L97.9693 223.253L102.548 225ZM154.243 195.295L153.984 192.859L152.49 193.017L151.954 194.422L154.243 195.295ZM198.841 190.558L201.152 189.742L200.507 187.917L198.582 188.121L198.841 190.558ZM199.821 193.335L202.121 194.18L202.426 193.352L202.132 192.519L199.821 193.335ZM192.797 212.448L194.391 214.309L194.876 213.893L195.097 213.294L192.797 212.448ZM189.366 215.389L189.625 217.826L190.382 217.745L190.961 217.249L189.366 215.389ZM144.768 220.126L142.479 219.253L141.055 222.985L145.027 222.563L144.768 220.126ZM154.502 197.732L199.1 192.995L198.582 188.121L153.984 192.859L154.502 197.732ZM196.53 191.373L197.511 194.151L202.132 192.519L201.152 189.742L196.53 191.373ZM197.521 192.49L190.497 211.603L195.097 213.294L202.121 194.18L197.521 192.49ZM191.202 210.588L187.771 213.528L190.961 217.249L194.391 214.309L191.202 210.588ZM189.107 212.952L144.51 217.69L145.027 222.563L189.625 217.826L189.107 212.952ZM147.058 221L156.533 196.169L151.954 194.422L142.479 219.253L147.058 221ZM198.753 190.295L198.494 187.859L196.999 188.017L196.464 189.422L198.753 190.295ZM243.351 185.558L245.661 184.742L245.017 182.917L243.092 183.121L243.351 185.558ZM244.331 188.335L246.631 189.18L246.935 188.352L246.642 187.519L244.331 188.335ZM237.306 207.448L238.901 209.309L239.386 208.893L239.606 208.294L237.306 207.448ZM233.876 210.389L234.135 212.826L234.892 212.745L235.471 212.249L233.876 210.389ZM189.278 215.126L186.989 214.253L185.564 217.985L189.537 217.563L189.278 215.126ZM199.012 192.732L243.61 187.995L243.092 183.121L198.494 187.859L199.012 192.732ZM241.04 186.373L242.02 189.151L246.642 187.519L245.661 184.742L241.04 186.373ZM242.031 187.49L235.006 206.603L239.606 208.294L246.631 189.18L242.031 187.49ZM235.712 205.588L232.281 208.528L235.471 212.249L238.901 209.309L235.712 205.588ZM233.617 207.952L189.019 212.69L189.537 217.563L234.135 212.826L233.617 207.952ZM191.567 216L201.042 191.169L196.464 189.422L186.989 214.253L191.567 216ZM290.148 183.746L292.448 184.591L292.752 183.763L292.458 182.93L290.148 183.746ZM283.123 202.859L284.718 204.72L285.203 204.304L285.423 203.704L283.123 202.859ZM279.692 205.8L279.95 208.236L280.708 208.156L281.287 207.66L279.692 205.8ZM259.599 207.923L257.151 207.808L257.016 210.66L259.856 210.36L259.599 207.923ZM260.579 187.176L263.027 187.292L258.219 186.516L260.579 187.176ZM253.718 206.616L254.493 208.941L255.481 208.612L255.929 207.672L253.718 206.616ZM233.788 210.7L231.498 209.827L230.079 213.546L234.039 213.138L233.788 210.7ZM243.263 185.869L242.983 183.435L241.504 183.605L240.973 184.996L243.263 185.869ZM260.742 182.602L261.409 184.96L263.119 184.477L263.191 182.701L260.742 182.602ZM261.396 166.429L260.273 164.251L259.005 164.905L258.947 166.33L261.396 166.429ZM277.242 158.261L279.69 158.378L279.891 154.139L276.119 156.083L277.242 158.261ZM276.098 182.275L273.651 182.159L273.516 184.996L276.342 184.714L276.098 182.275ZM289.167 180.969L291.478 180.153L290.838 178.339L288.924 178.53L289.167 180.969ZM245.06 226.873L244.419 224.508L242.927 224.912L242.649 226.433L245.06 226.873ZM274.628 218.869L277.034 219.336L277.783 215.476L273.988 216.503L274.628 218.869ZM271.361 235.695L271.885 238.088L273.459 237.744L273.766 236.162L271.361 235.695ZM242.283 242.066L239.872 241.625L239.21 245.248L242.807 244.46L242.283 242.066ZM287.848 182.9L280.823 202.014L285.423 203.704L292.448 184.591L287.848 182.9ZM281.528 200.999L278.098 203.939L281.287 207.66L284.718 204.72L281.528 200.999ZM279.435 203.363L259.341 205.486L259.856 210.36L279.95 208.236L279.435 203.363ZM262.047 208.039L263.027 187.292L258.131 187.061L257.151 207.808L262.047 208.039ZM258.219 186.516C255.951 194.618 253.708 200.948 251.506 205.561L255.929 207.672C258.302 202.701 260.633 196.071 262.939 187.837L258.219 186.516ZM252.943 204.292C247.262 206.185 240.799 207.515 233.537 208.263L234.039 213.138C241.588 212.361 248.412 210.968 254.493 208.941L252.943 204.292ZM236.077 211.574L245.552 186.743L240.973 184.996L231.498 209.827L236.077 211.574ZM243.542 188.304C250.282 187.531 256.243 186.42 261.409 184.96L260.076 180.244C255.223 181.616 249.531 182.684 242.983 183.435L243.542 188.304ZM263.191 182.701L263.844 166.528L258.947 166.33L258.294 182.503L263.191 182.701ZM262.519 168.607L278.365 160.439L276.119 156.083L260.273 164.251L262.519 168.607ZM274.794 158.145L273.651 182.159L278.546 182.392L279.69 158.378L274.794 158.145ZM276.342 184.714L289.411 183.407L288.924 178.53L275.855 179.837L276.342 184.714ZM286.857 181.784L287.837 184.561L292.458 182.93L291.478 180.153L286.857 181.784ZM245.7 229.239L275.268 221.234L273.988 216.503L244.419 224.508L245.7 229.239ZM272.223 218.401L268.955 235.228L273.766 236.162L277.034 219.336L272.223 218.401ZM270.836 233.301L241.758 239.672L242.807 244.46L271.885 238.088L270.836 233.301ZM244.693 242.506L247.47 227.314L242.649 226.433L239.872 241.625L244.693 242.506ZM311.102 163.226L313.539 163.483L313.816 160.86L311.179 160.777L311.102 163.226ZM300.484 201.943L301.197 204.287L302.216 203.978L302.684 203.022L300.484 201.943ZM279.574 205.7L277.284 204.827L275.855 208.574L279.841 208.136L279.574 205.7ZM289.049 180.869L288.757 178.436L287.287 178.613L286.759 179.996L289.049 180.869ZM302.281 178.419L302.964 180.772L304.31 180.382L304.656 179.023L302.281 178.419ZM305.875 163.063L305.951 160.614L303.889 160.549L303.474 162.571L305.875 163.063ZM301.464 149.504L299.967 151.444L301.348 152.509L302.806 151.554L301.464 149.504ZM290.029 135.455L288.67 133.416L286.735 134.706L287.921 136.705L290.029 135.455ZM305.221 125.326L307.315 124.052L305.987 121.871L303.862 123.288L305.221 125.326ZM307.509 129.084L305.415 130.358L305.415 130.358L307.509 129.084ZM315.187 140.519L316.529 142.569L318.772 141.1L317.108 138.998L315.187 140.519ZM308.666 162.97C307.166 177.212 303.694 189.832 298.284 200.864L302.684 203.022C308.383 191.401 311.989 178.21 313.539 163.483L308.666 162.97ZM299.77 199.599C294.973 201.059 288.176 202.291 279.306 203.265L279.841 208.136C288.832 207.149 295.975 205.877 301.197 204.287L299.77 199.599ZM281.863 206.574L291.338 181.743L286.759 179.996L277.284 204.827L281.863 206.574ZM289.341 183.302C294.854 182.641 299.41 181.804 302.964 180.772L301.598 176.066C298.4 176.994 294.134 177.791 288.757 178.436L289.341 183.302ZM304.656 179.023C306.186 173.011 307.394 167.852 308.275 163.555L303.474 162.571C302.613 166.768 301.425 171.848 299.906 177.815L304.656 179.023ZM305.798 165.512L311.026 165.676L311.179 160.777L305.951 160.614L305.798 165.512ZM302.961 147.564C299.492 144.888 295.868 140.495 292.136 134.205L287.921 136.705C291.813 143.266 295.813 148.239 299.967 151.444L302.961 147.564ZM291.388 137.494L306.581 127.365L303.862 123.288L288.67 133.416L291.388 137.494ZM303.128 126.601L305.415 130.358L309.602 127.81L307.315 124.052L303.128 126.601ZM305.415 130.358C308.484 135.4 311.104 139.31 313.265 142.04L317.108 138.998C315.13 136.5 312.632 132.788 309.602 127.81L305.415 130.358ZM313.844 138.469L300.122 147.454L302.806 151.554L316.529 142.569L313.844 138.469Z" fill="#410F86" mask="url(#path-8-outside-2_19_90)"/>
</g>
<rect x="0.290833" y="0.290833" width="349.418" height="349.418" stroke="black" stroke-width="0.581667"/>
<defs>
<filter id="filter0_d_19_90" x="33.9504" y="116.035" width="289.723" height="143.932" filterUnits="userSpaceOnUse" color-interpolation-filters="sRGB">
<feFlood flood-opacity="0" result="BackgroundImageFix"/>
<feColorMatrix in="SourceAlpha" type="matrix" values="0 0 0 0 0 0 0 0 0 0 0 0 0 0 0 0 0 0 127 0" result="hardAlpha"/>
<feOffset dx="4.90085" dy="8.98489"/>
<feComposite in2="hardAlpha" operator="out"/>
<feColorMatrix type="matrix" values="0 0 0 0 0 0 0 0 0 0 0 0 0 0 0 0 0 0 0.8 0"/>
<feBlend mode="normal" in2="BackgroundImageFix" result="effect1_dropShadow_19_90"/>
<feBlend mode="normal" in="SourceGraphic" in2="effect1_dropShadow_19_90" result="shape"/>
</filter>
<clipPath id="clip0_19_90">
<rect width="350" height="350" fill="white"/>
</clipPath>
</defs>
</svg>
