<svg width="358" height="183" viewBox="0 0 358 183" fill="none" xmlns="http://www.w3.org/2000/svg">
<g filter="url(#filter0_d_13_26)">
<mask id="path-1-outside-1_13_26" maskUnits="userSpaceOnUse" x="3" y="7" width="349" height="165" fill="black">
<rect fill="white" x="3" y="7" width="349" height="165"/>
<path d="M97 119L88.4 142.4L84.2 146L59.2 148.8L59.6 143.6C61.2 122 62.0667 108.4 62.2 102.8C56.6 111.6 51.6667 117.333 47.4 120C45 121.467 42.1333 122.667 38.8 123.6C35.6 124.4 32.4667 124.8 29.4 124.8C22.3333 124.8 16.6667 122.6 12.4 118.2C8.13333 113.8 6 108.733 6 103C6 95.8 8.46667 87.9333 13.4 79.4C18.4667 70.7333 24.6 63.4 31.8 57.4C39 51.4 45.6 48.4 51.6 48.4C62.2667 48.4 70.4667 52.3333 76.2 60.2C82.0667 68.0667 85 79.1333 85 93.4C84.8667 96.2 84.6667 99.9333 84.4 104.6C84.1333 109.267 83.8667 113.333 83.6 116.8L95.8 115.6L97 119ZM46 97C51.7333 97 56.7333 95.6 61 92.8C59.4 87.7333 56.3333 84.1333 51.8 82C47.2667 79.8667 41.2 78.8 33.6 78.8C29.3333 78.8 25.5333 79.4 22.2 80.6C23.1333 85.4 25.9333 89.3333 30.6 92.4C35.2667 95.4667 40.4 97 46 97ZM33.4 21L69.6 11.2L65.6 31.8L30 39.6L33.4 21ZM95.7797 116L150.38 110.2L151.58 113.6L142.98 137L138.78 140.6L84.1797 146.4L95.7797 116ZM150.272 110L204.872 104.2L206.072 107.6L197.472 131L193.272 134.6L138.672 140.4L150.272 110ZM204.764 104L259.364 98.2L260.564 101.6L251.964 125L247.764 128.6L193.164 134.4L204.764 104ZM316.656 96L308.056 119.4L303.856 123L279.256 125.6L280.456 100.2C277.656 110.2 274.856 118.133 272.056 124C264.856 126.4 256.723 128.067 247.656 129L259.256 98.6C267.39 97.6667 274.523 96.3333 280.656 94.6L281.456 74.8L300.856 64.8L299.456 94.2L315.456 92.6L316.656 96ZM261.456 148.8L297.656 139L293.656 159.6L258.056 167.4L261.456 148.8ZM342.311 71C340.444 88.7333 336.111 104.533 329.311 118.4C323.178 120.267 314.644 121.8 303.711 123L315.311 92.6C321.978 91.8 327.378 90.8 331.511 89.6C333.378 82.2667 334.844 76 335.911 70.8L342.311 71ZM330.511 54.2C325.844 50.6 321.178 44.8667 316.511 37L335.111 24.6L337.911 29.2C341.644 35.3333 344.778 40 347.311 43.2L330.511 54.2Z"/>
</mask>
<path d="M97 119L99.8159 120.035L100.189 119.021L99.829 118.002L97 119ZM88.4 142.4L90.3524 144.678L90.9461 144.169L91.2159 143.435L88.4 142.4ZM84.2 146L84.5339 148.981L85.4514 148.879L86.1524 148.278L84.2 146ZM59.2 148.8L56.2088 148.57L55.9308 152.185L59.5339 151.781L59.2 148.8ZM59.6 143.6L62.5912 143.83L62.5918 143.822L59.6 143.6ZM62.2 102.8L65.1992 102.871L65.4557 92.096L59.669 101.189L62.2 102.8ZM47.4 120L48.9644 122.56L48.9772 122.552L48.99 122.544L47.4 120ZM38.8 123.6L39.5276 126.51L39.5684 126.5L39.6089 126.489L38.8 123.6ZM12.4 118.2L14.5537 116.112L14.5537 116.112L12.4 118.2ZM13.4 79.4L10.8101 77.8859L10.8064 77.8922L10.8028 77.8985L13.4 79.4ZM31.8 57.4L29.8794 55.0953L29.8794 55.0953L31.8 57.4ZM76.2 60.2L73.7756 61.967L73.7853 61.9803L73.7951 61.9935L76.2 60.2ZM85 93.4L87.9966 93.5427L88 93.4714V93.4H85ZM84.4 104.6L81.4049 104.429L81.4049 104.429L84.4 104.6ZM83.6 116.8L80.6088 116.57L80.3345 120.136L83.8937 119.786L83.6 116.8ZM95.8 115.6L98.629 114.602L97.8464 112.384L95.5063 112.614L95.8 115.6ZM61 92.8L62.646 95.3081L64.5446 94.0622L63.8607 91.8966L61 92.8ZM51.8 82L50.5226 84.7145L50.5226 84.7145L51.8 82ZM22.2 80.6L21.1838 77.7773L18.7643 78.6484L19.2552 81.1726L22.2 80.6ZM30.6 92.4L32.2475 89.8929L32.2475 89.8929L30.6 92.4ZM33.4 21L32.6161 18.1042L30.7892 18.5988L30.4489 20.4605L33.4 21ZM69.6 11.2L72.545 11.7718L73.4626 7.04634L68.8161 8.30423L69.6 11.2ZM65.6 31.8L66.2421 34.7305L68.169 34.3083L68.545 32.3718L65.6 31.8ZM30 39.6L27.0489 39.0605L26.2382 43.4954L30.6421 42.5305L30 39.6ZM94.1842 117.965L85.5842 141.365L91.2159 143.435L99.8159 120.035L94.1842 117.965ZM86.4476 140.122L82.2476 143.722L86.1524 148.278L90.3524 144.678L86.4476 140.122ZM83.8661 143.019L58.8661 145.819L59.5339 151.781L84.5339 148.981L83.8661 143.019ZM62.1912 149.03L62.5912 143.83L56.6088 143.37L56.2088 148.57L62.1912 149.03ZM62.5918 143.822C64.1899 122.248 65.0636 108.563 65.1992 102.871L59.2009 102.729C59.0697 108.237 58.2101 121.752 56.6082 143.378L62.5918 143.822ZM59.669 101.189C54.1053 109.932 49.4709 115.168 45.81 117.456L48.99 122.544C53.8624 119.499 59.0947 113.268 64.731 104.411L59.669 101.189ZM45.8357 117.44C43.718 118.734 41.1173 119.836 37.9911 120.711L39.6089 126.489C43.1493 125.498 46.282 124.199 48.9644 122.56L45.8357 117.44ZM38.0724 120.69C35.0925 121.435 32.2036 121.8 29.4 121.8V127.8C32.7297 127.8 36.1075 127.365 39.5276 126.51L38.0724 120.69ZM29.4 121.8C23.0098 121.8 18.1677 119.838 14.5537 116.112L10.2463 120.288C15.1657 125.362 21.6569 127.8 29.4 127.8V121.8ZM14.5537 116.112C10.7885 112.229 9 107.896 9 103H3C3 109.57 5.47815 115.371 10.2463 120.288L14.5537 116.112ZM9 103C9 96.4866 11.2345 89.1398 15.9972 80.9015L10.8028 77.8985C5.69887 86.7269 3 95.1134 3 103H9ZM15.9899 80.9141C20.8935 72.5263 26.8063 65.4666 33.7206 59.7047L29.8794 55.0953C22.3937 61.3334 16.0398 68.9404 10.8101 77.8859L15.9899 80.9141ZM33.7206 59.7047C40.6685 53.9147 46.6017 51.4 51.6 51.4V45.4C44.5983 45.4 37.3315 48.8853 29.8794 55.0953L33.7206 59.7047ZM51.6 51.4C61.4146 51.4 68.6669 54.9574 73.7756 61.967L78.6244 58.433C72.2664 49.7092 63.1187 45.4 51.6 45.4V51.4ZM73.7951 61.9935C79.1353 69.1542 82 79.4977 82 93.4H88C88 78.769 84.998 66.9791 78.6049 58.4065L73.7951 61.9935ZM82.0034 93.2573C81.8707 96.0437 81.6713 99.7663 81.4049 104.429L87.3951 104.771C87.662 100.1 87.8626 96.3563 87.9966 93.5427L82.0034 93.2573ZM81.4049 104.429C81.139 109.082 80.8736 113.128 80.6088 116.57L86.5912 117.03C86.8598 113.538 87.1277 109.451 87.3951 104.771L81.4049 104.429ZM83.8937 119.786L96.0937 118.586L95.5063 112.614L83.3063 113.814L83.8937 119.786ZM92.971 116.598L94.171 119.998L99.829 118.002L98.629 114.602L92.971 116.598ZM46 100C52.2436 100 57.8315 98.4677 62.646 95.3081L59.354 90.2919C55.6352 92.7323 51.2231 94 46 94V100ZM63.8607 91.8966C62.0259 86.0861 58.4181 81.7988 53.0774 79.2855L50.5226 84.7145C54.2486 86.4679 56.7742 89.3806 58.1393 93.7034L63.8607 91.8966ZM53.0774 79.2855C47.9918 76.8923 41.4344 75.8 33.6 75.8V81.8C40.9656 81.8 46.5415 82.841 50.5226 84.7145L53.0774 79.2855ZM33.6 75.8C29.0556 75.8 24.902 76.4388 21.1838 77.7773L23.2162 83.4227C26.1646 82.3612 29.611 81.8 33.6 81.8V75.8ZM19.2552 81.1726C20.3651 86.8808 23.7151 91.4654 28.9525 94.9071L32.2475 89.8929C28.1516 87.2013 25.9016 83.9192 25.1448 80.0274L19.2552 81.1726ZM28.9525 94.9071C34.1099 98.2963 39.8163 100 46 100V94C40.9837 94 36.4234 92.637 32.2475 89.8929L28.9525 94.9071ZM34.1839 23.8958L70.3839 14.0958L68.8161 8.30423L32.6161 18.1042L34.1839 23.8958ZM66.655 10.6282L62.655 31.2282L68.545 32.3718L72.545 11.7718L66.655 10.6282ZM64.9579 28.8695L29.3579 36.6695L30.6421 42.5305L66.2421 34.7305L64.9579 28.8695ZM32.9511 40.1394L36.3511 21.5394L30.4489 20.4605L27.0489 39.0605L32.9511 40.1394ZM95.7797 116L95.4628 113.017L93.6329 113.211L92.9768 114.93L95.7797 116ZM150.38 110.2L153.209 109.202L152.42 106.966L150.063 107.217L150.38 110.2ZM151.58 113.6L154.396 114.635L154.768 113.621L154.409 112.602L151.58 113.6ZM142.98 137L144.932 139.278L145.526 138.769L145.796 138.035L142.98 137ZM138.78 140.6L139.097 143.583L140.024 143.485L140.732 142.878L138.78 140.6ZM84.1797 146.4L81.3768 145.33L79.6332 149.9L84.4966 149.383L84.1797 146.4ZM96.0966 118.983L150.697 113.183L150.063 107.217L95.4628 113.017L96.0966 118.983ZM147.551 111.198L148.751 114.598L154.409 112.602L153.209 109.202L147.551 111.198ZM148.764 112.565L140.164 135.965L145.796 138.035L154.396 114.635L148.764 112.565ZM141.027 134.722L136.827 138.322L140.732 142.878L144.932 139.278L141.027 134.722ZM138.463 137.617L83.8628 143.417L84.4966 149.383L139.097 143.583L138.463 137.617ZM86.9826 147.47L98.5826 117.07L92.9768 114.93L81.3768 145.33L86.9826 147.47ZM150.272 110L149.955 107.017L148.125 107.211L147.469 108.93L150.272 110ZM204.872 104.2L207.701 103.202L206.912 100.966L204.555 101.217L204.872 104.2ZM206.072 107.6L208.888 108.635L209.261 107.621L208.901 106.602L206.072 107.6ZM197.472 131L199.424 133.278L200.018 132.769L200.288 132.035L197.472 131ZM193.272 134.6L193.589 137.583L194.516 137.485L195.224 136.878L193.272 134.6ZM138.672 140.4L135.869 139.33L134.125 143.9L138.989 143.383L138.672 140.4ZM150.589 112.983L205.189 107.183L204.555 101.217L149.955 107.017L150.589 112.983ZM202.043 105.198L203.243 108.598L208.901 106.602L207.701 103.202L202.043 105.198ZM203.256 106.565L194.656 129.965L200.288 132.035L208.888 108.635L203.256 106.565ZM195.52 128.722L191.32 132.322L195.224 136.878L199.424 133.278L195.52 128.722ZM192.955 131.617L138.355 137.417L138.989 143.383L193.589 137.583L192.955 131.617ZM141.475 141.47L153.075 111.07L147.469 108.93L135.869 139.33L141.475 141.47ZM204.764 104L204.447 101.017L202.617 101.211L201.961 102.93L204.764 104ZM259.364 98.2L262.193 97.2015L261.404 94.9664L259.047 95.2168L259.364 98.2ZM260.564 101.6L263.38 102.635L263.753 101.621L263.393 100.602L260.564 101.6ZM251.964 125L253.916 127.278L254.51 126.769L254.78 126.035L251.964 125ZM247.764 128.6L248.081 131.583L249.008 131.485L249.716 130.878L247.764 128.6ZM193.164 134.4L190.361 133.33L188.618 137.9L193.481 137.383L193.164 134.4ZM205.081 106.983L259.681 101.183L259.047 95.2168L204.447 101.017L205.081 106.983ZM256.535 99.1985L257.735 102.598L263.393 100.602L262.193 97.2015L256.535 99.1985ZM257.748 100.565L249.148 123.965L254.78 126.035L263.38 102.635L257.748 100.565ZM250.012 122.722L245.812 126.322L249.716 130.878L253.916 127.278L250.012 122.722ZM247.447 125.617L192.847 131.417L193.481 137.383L248.081 131.583L247.447 125.617ZM195.967 135.47L207.567 105.07L201.961 102.93L190.361 133.33L195.967 135.47ZM316.656 96L319.472 97.0349L319.845 96.0206L319.485 95.0015L316.656 96ZM308.056 119.4L310.009 121.678L310.602 121.169L310.872 120.435L308.056 119.4ZM303.856 123L304.172 125.983L305.1 125.885L305.809 125.278L303.856 123ZM279.256 125.6L276.26 125.458L276.095 128.951L279.572 128.583L279.256 125.6ZM280.456 100.2L283.453 100.342L277.567 99.3911L280.456 100.2ZM272.056 124L273.005 126.846L274.215 126.443L274.764 125.292L272.056 124ZM247.656 129L244.853 127.93L243.116 132.483L247.963 131.984L247.656 129ZM259.256 98.6L258.914 95.6196L257.103 95.8274L256.453 97.5305L259.256 98.6ZM280.656 94.6L281.472 97.4869L283.566 96.8952L283.654 94.7211L280.656 94.6ZM281.456 74.8L280.082 72.1334L278.529 72.9337L278.459 74.6789L281.456 74.8ZM300.856 64.8L303.853 64.9427L304.1 59.7529L299.482 62.1334L300.856 64.8ZM299.456 94.2L296.46 94.0573L296.294 97.5312L299.755 97.1851L299.456 94.2ZM315.456 92.6L318.285 91.6015L317.501 89.3805L315.158 89.6149L315.456 92.6ZM261.456 148.8L260.672 145.904L258.845 146.399L258.505 148.261L261.456 148.8ZM297.656 139L300.601 139.572L301.519 134.846L296.872 136.104L297.656 139ZM293.656 159.6L294.298 162.53L296.225 162.108L296.601 160.172L293.656 159.6ZM258.056 167.4L255.105 166.861L254.294 171.295L258.698 170.33L258.056 167.4ZM313.84 94.9651L305.24 118.365L310.872 120.435L319.472 97.0349L313.84 94.9651ZM306.104 117.122L301.904 120.722L305.809 125.278L310.009 121.678L306.104 117.122ZM303.541 120.017L278.941 122.617L279.572 128.583L304.172 125.983L303.541 120.017ZM282.253 125.742L283.453 100.342L277.46 100.058L276.26 125.458L282.253 125.742ZM277.567 99.3911C274.79 109.311 272.044 117.06 269.349 122.708L274.764 125.292C277.668 119.206 280.523 111.089 283.345 101.009L277.567 99.3911ZM271.108 121.154C264.152 123.472 256.24 125.101 247.349 126.016L247.963 131.984C257.206 131.033 265.56 129.328 273.005 126.846L271.108 121.154ZM250.459 130.07L262.059 99.6695L256.453 97.5305L244.853 127.93L250.459 130.07ZM259.598 101.58C267.849 100.634 275.147 99.2744 281.472 97.4869L279.84 91.7131C273.899 93.3923 266.93 94.6997 258.914 95.6196L259.598 101.58ZM283.654 94.7211L284.454 74.9211L278.459 74.6789L277.659 94.4789L283.654 94.7211ZM282.831 77.4666L302.231 67.4666L299.482 62.1334L280.082 72.1334L282.831 77.4666ZM297.86 64.6573L296.46 94.0573L302.453 94.3427L303.853 64.9427L297.86 64.6573ZM299.755 97.1851L315.755 95.5851L315.158 89.6149L299.158 91.2149L299.755 97.1851ZM312.627 93.5985L313.827 96.9985L319.485 95.0015L318.285 91.6015L312.627 93.5985ZM262.24 151.696L298.44 141.896L296.872 136.104L260.672 145.904L262.24 151.696ZM294.711 138.428L290.711 159.028L296.601 160.172L300.601 139.572L294.711 138.428ZM293.014 156.67L257.414 164.47L258.698 170.33L294.298 162.53L293.014 156.67ZM261.007 167.939L264.407 149.339L258.505 148.261L255.105 166.861L261.007 167.939ZM342.311 71L345.294 71.3141L345.633 68.1023L342.405 68.0015L342.311 71ZM329.311 118.4L330.184 121.27L331.431 120.891L332.005 119.721L329.311 118.4ZM303.711 123L300.908 121.93L299.158 126.518L304.038 125.982L303.711 123ZM315.311 92.6L314.954 89.6214L313.154 89.8373L312.508 91.5305L315.311 92.6ZM331.511 89.6L332.347 92.481L333.995 92.0027L334.418 90.34L331.511 89.6ZM335.911 70.8L336.005 67.8015L333.48 67.7226L332.972 70.1972L335.911 70.8ZM330.511 54.2L328.679 56.5753L330.369 57.8791L332.154 56.7099L330.511 54.2ZM316.511 37L314.847 34.5038L312.479 36.0827L313.931 38.5306L316.511 37ZM335.111 24.6L337.674 23.0402L336.048 20.3697L333.447 22.1038L335.111 24.6ZM337.911 29.2L335.348 30.7598L335.348 30.7598L337.911 29.2ZM347.311 43.2L348.954 45.7099L351.701 43.9117L349.663 41.3379L347.311 43.2ZM339.327 70.6859C337.492 88.1225 333.24 103.573 326.617 117.079L332.005 119.721C338.981 105.493 343.397 89.3442 345.294 71.3141L339.327 70.6859ZM328.437 115.53C322.564 117.317 314.243 118.826 303.384 120.018L304.038 125.982C315.046 124.774 323.791 123.216 330.184 121.27L328.437 115.53ZM306.514 124.07L318.114 93.6695L312.508 91.5305L300.908 121.93L306.514 124.07ZM315.668 95.5786C322.418 94.7687 327.996 93.7444 332.347 92.481L330.675 86.719C326.759 87.8556 321.537 88.8313 314.954 89.6214L315.668 95.5786ZM334.418 90.34C336.292 82.9786 337.771 76.6635 338.85 71.4028L332.972 70.1972C331.918 75.3365 330.463 81.5547 328.604 88.86L334.418 90.34ZM335.817 73.7985L342.217 73.9985L342.405 68.0015L336.005 67.8015L335.817 73.7985ZM332.343 51.8246C328.096 48.5482 323.659 43.1703 319.091 35.4694L313.931 38.5306C318.696 46.563 323.592 52.6518 328.679 56.5753L332.343 51.8246ZM318.175 39.4961L336.775 27.0961L333.447 22.1038L314.847 34.5038L318.175 39.4961ZM332.548 26.1598L335.348 30.7598L340.474 27.6402L337.674 23.0402L332.548 26.1598ZM335.348 30.7598C339.105 36.9322 342.313 41.7199 344.959 45.0621L349.663 41.3379C347.242 38.2801 344.183 33.7344 340.474 27.6402L335.348 30.7598ZM345.668 40.6901L328.868 51.6901L332.154 56.7099L348.954 45.7099L345.668 40.6901Z" fill="white" mask="url(#path-1-outside-1_13_26)"/>
</g>
<path d="M97 112L88.4 135.4L84.2 139L59.2 141.8L59.6 136.6C61.2 115 62.0667 101.4 62.2 95.8C56.6 104.6 51.6667 110.333 47.4 113C45 114.467 42.1333 115.667 38.8 116.6C35.6 117.4 32.4667 117.8 29.4 117.8C22.3333 117.8 16.6667 115.6 12.4 111.2C8.13333 106.8 6 101.733 6 96C6 88.8 8.46667 80.9333 13.4 72.4C18.4667 63.7333 24.6 56.4 31.8 50.4C39 44.4 45.6 41.4 51.6 41.4C62.2667 41.4 70.4667 45.3333 76.2 53.2C82.0667 61.0667 85 72.1333 85 86.4C84.8667 89.2 84.6667 92.9333 84.4 97.6C84.1333 102.267 83.8667 106.333 83.6 109.8L95.8 108.6L97 112ZM46 90C51.7333 90 56.7333 88.6 61 85.8C59.4 80.7333 56.3333 77.1333 51.8 75C47.2667 72.8667 41.2 71.8 33.6 71.8C29.3333 71.8 25.5333 72.4 22.2 73.6C23.1333 78.4 25.9333 82.3333 30.6 85.4C35.2667 88.4667 40.4 90 46 90ZM33.4 14L69.6 4.2L65.6 24.8L30 32.6L33.4 14ZM95.7797 109L150.38 103.2L151.58 106.6L142.98 130L138.78 133.6L84.1797 139.4L95.7797 109ZM150.272 103L204.872 97.2L206.072 100.6L197.472 124L193.272 127.6L138.672 133.4L150.272 103ZM204.764 97L259.364 91.2L260.564 94.6L251.964 118L247.764 121.6L193.164 127.4L204.764 97ZM316.656 89L308.056 112.4L303.856 116L279.256 118.6L280.456 93.2C277.656 103.2 274.856 111.133 272.056 117C264.856 119.4 256.723 121.067 247.656 122L259.256 91.6C267.39 90.6667 274.523 89.3333 280.656 87.6L281.456 67.8L300.856 57.8L299.456 87.2L315.456 85.6L316.656 89ZM261.456 141.8L297.656 132L293.656 152.6L258.056 160.4L261.456 141.8ZM342.311 64C340.444 81.7333 336.111 97.5333 329.311 111.4C323.178 113.267 314.644 114.8 303.711 116L315.311 85.6C321.978 84.8 327.378 83.8 331.511 82.6C333.378 75.2667 334.844 69 335.911 63.8L342.311 64ZM330.511 47.2C325.844 43.6 321.178 37.8667 316.511 30L335.111 17.6L337.911 22.2C341.644 28.3333 344.778 33 347.311 36.2L330.511 47.2Z" fill="white"/>
<mask id="path-5-outside-2_13_26" maskUnits="userSpaceOnUse" x="3" y="0" width="349" height="165" fill="black">
<rect fill="white" x="3" width="349" height="165"/>
<path d="M97 112L88.4 135.4L84.2 139L59.2 141.8L59.6 136.6C61.2 115 62.0667 101.4 62.2 95.8C56.6 104.6 51.6667 110.333 47.4 113C45 114.467 42.1333 115.667 38.8 116.6C35.6 117.4 32.4667 117.8 29.4 117.8C22.3333 117.8 16.6667 115.6 12.4 111.2C8.13333 106.8 6 101.733 6 96C6 88.8 8.46667 80.9333 13.4 72.4C18.4667 63.7333 24.6 56.4 31.8 50.4C39 44.4 45.6 41.4 51.6 41.4C62.2667 41.4 70.4667 45.3333 76.2 53.2C82.0667 61.0667 85 72.1333 85 86.4C84.8667 89.2 84.6667 92.9333 84.4 97.6C84.1333 102.267 83.8667 106.333 83.6 109.8L95.8 108.6L97 112ZM46 90C51.7333 90 56.7333 88.6 61 85.8C59.4 80.7333 56.3333 77.1333 51.8 75C47.2667 72.8667 41.2 71.8 33.6 71.8C29.3333 71.8 25.5333 72.4 22.2 73.6C23.1333 78.4 25.9333 82.3333 30.6 85.4C35.2667 88.4667 40.4 90 46 90ZM33.4 14L69.6 4.2L65.6 24.8L30 32.6L33.4 14ZM95.7797 109L150.38 103.2L151.58 106.6L142.98 130L138.78 133.6L84.1797 139.4L95.7797 109ZM150.272 103L204.872 97.2L206.072 100.6L197.472 124L193.272 127.6L138.672 133.4L150.272 103ZM204.764 97L259.364 91.2L260.564 94.6L251.964 118L247.764 121.6L193.164 127.4L204.764 97ZM316.656 89L308.056 112.4L303.856 116L279.256 118.6L280.456 93.2C277.656 103.2 274.856 111.133 272.056 117C264.856 119.4 256.723 121.067 247.656 122L259.256 91.6C267.39 90.6667 274.523 89.3333 280.656 87.6L281.456 67.8L300.856 57.8L299.456 87.2L315.456 85.6L316.656 89ZM261.456 141.8L297.656 132L293.656 152.6L258.056 160.4L261.456 141.8ZM342.311 64C340.444 81.7333 336.111 97.5333 329.311 111.4C323.178 113.267 314.644 114.8 303.711 116L315.311 85.6C321.978 84.8 327.378 83.8 331.511 82.6C333.378 75.2667 334.844 69 335.911 63.8L342.311 64ZM330.511 47.2C325.844 43.6 321.178 37.8667 316.511 30L335.111 17.6L337.911 22.2C341.644 28.3333 344.778 33 347.311 36.2L330.511 47.2Z"/>
</mask>
<path d="M97 112L99.8159 113.035L100.189 112.021L99.829 111.002L97 112ZM88.4 135.4L90.3524 137.678L90.9461 137.169L91.2159 136.435L88.4 135.4ZM84.2 139L84.5339 141.981L85.4514 141.879L86.1524 141.278L84.2 139ZM59.2 141.8L56.2088 141.57L55.9308 145.185L59.5339 144.781L59.2 141.8ZM59.6 136.6L62.5912 136.83L62.5918 136.822L59.6 136.6ZM62.2 95.8L65.1992 95.8714L65.4557 85.096L59.669 94.1894L62.2 95.8ZM47.4 113L48.9644 115.56L48.9772 115.552L48.99 115.544L47.4 113ZM38.8 116.6L39.5276 119.51L39.5684 119.5L39.6089 119.489L38.8 116.6ZM12.4 111.2L14.5537 109.112L14.5537 109.112L12.4 111.2ZM13.4 72.4L10.8101 70.8859L10.8064 70.8922L10.8028 70.8985L13.4 72.4ZM31.8 50.4L29.8794 48.0953L29.8794 48.0953L31.8 50.4ZM76.2 53.2L73.7756 54.967L73.7853 54.9803L73.7951 54.9935L76.2 53.2ZM85 86.4L87.9966 86.5427L88 86.4714V86.4H85ZM84.4 97.6L81.4049 97.4288L81.4049 97.4288L84.4 97.6ZM83.6 109.8L80.6088 109.57L80.3345 113.136L83.8937 112.786L83.6 109.8ZM95.8 108.6L98.629 107.602L97.8464 105.384L95.5063 105.614L95.8 108.6ZM61 85.8L62.646 88.3081L64.5446 87.0622L63.8607 84.8966L61 85.8ZM51.8 75L50.5226 77.7145L50.5226 77.7145L51.8 75ZM22.2 73.6L21.1838 70.7773L18.7643 71.6484L19.2552 74.1726L22.2 73.6ZM30.6 85.4L32.2475 82.8929L32.2475 82.8929L30.6 85.4ZM33.4 14L32.6161 11.1042L30.7892 11.5988L30.4489 13.4605L33.4 14ZM69.6 4.2L72.545 4.77184L73.4626 0.0463423L68.8161 1.30423L69.6 4.2ZM65.6 24.8L66.2421 27.7305L68.169 27.3083L68.545 25.3718L65.6 24.8ZM30 32.6L27.0489 32.0605L26.2382 36.4954L30.6421 35.5305L30 32.6ZM94.1842 110.965L85.5842 134.365L91.2159 136.435L99.8159 113.035L94.1842 110.965ZM86.4476 133.122L82.2476 136.722L86.1524 141.278L90.3524 137.678L86.4476 133.122ZM83.8661 136.019L58.8661 138.819L59.5339 144.781L84.5339 141.981L83.8661 136.019ZM62.1912 142.03L62.5912 136.83L56.6088 136.37L56.2088 141.57L62.1912 142.03ZM62.5918 136.822C64.1899 115.248 65.0636 101.563 65.1992 95.8714L59.2009 95.7286C59.0697 101.237 58.2101 114.752 56.6082 136.378L62.5918 136.822ZM59.669 94.1894C54.1053 102.932 49.4709 108.168 45.81 110.456L48.99 115.544C53.8624 112.499 59.0947 106.268 64.731 97.4106L59.669 94.1894ZM45.8357 110.44C43.718 111.734 41.1173 112.836 37.9911 113.711L39.6089 119.489C43.1493 118.498 46.282 117.199 48.9644 115.56L45.8357 110.44ZM38.0724 113.69C35.0925 114.435 32.2036 114.8 29.4 114.8V120.8C32.7297 120.8 36.1075 120.365 39.5276 119.51L38.0724 113.69ZM29.4 114.8C23.0098 114.8 18.1677 112.838 14.5537 109.112L10.2463 113.288C15.1657 118.362 21.6569 120.8 29.4 120.8V114.8ZM14.5537 109.112C10.7885 105.229 9 100.896 9 96H3C3 102.57 5.47815 108.371 10.2463 113.288L14.5537 109.112ZM9 96C9 89.4866 11.2345 82.1398 15.9972 73.9015L10.8028 70.8985C5.69887 79.7269 3 88.1134 3 96H9ZM15.9899 73.9141C20.8935 65.5263 26.8063 58.4666 33.7206 52.7047L29.8794 48.0953C22.3937 54.3334 16.0398 61.9404 10.8101 70.8859L15.9899 73.9141ZM33.7206 52.7047C40.6685 46.9147 46.6017 44.4 51.6 44.4V38.4C44.5983 38.4 37.3315 41.8853 29.8794 48.0953L33.7206 52.7047ZM51.6 44.4C61.4146 44.4 68.6669 47.9574 73.7756 54.967L78.6244 51.433C72.2664 42.7092 63.1187 38.4 51.6 38.4V44.4ZM73.7951 54.9935C79.1353 62.1542 82 72.4977 82 86.4H88C88 71.769 84.998 59.9791 78.6049 51.4065L73.7951 54.9935ZM82.0034 86.2573C81.8707 89.0437 81.6713 92.7663 81.4049 97.4288L87.3951 97.7711C87.662 93.1003 87.8626 89.3563 87.9966 86.5427L82.0034 86.2573ZM81.4049 97.4288C81.139 102.082 80.8736 106.128 80.6088 109.57L86.5912 110.03C86.8598 106.538 87.1277 102.451 87.3951 97.7711L81.4049 97.4288ZM83.8937 112.786L96.0937 111.586L95.5063 105.614L83.3063 106.814L83.8937 112.786ZM92.971 109.598L94.171 112.998L99.829 111.002L98.629 107.602L92.971 109.598ZM46 93C52.2436 93 57.8315 91.4677 62.646 88.3081L59.354 83.2919C55.6352 85.7323 51.2231 87 46 87V93ZM63.8607 84.8966C62.0259 79.0861 58.4181 74.7988 53.0774 72.2855L50.5226 77.7145C54.2486 79.4679 56.7742 82.3806 58.1393 86.7034L63.8607 84.8966ZM53.0774 72.2855C47.9918 69.8923 41.4344 68.8 33.6 68.8V74.8C40.9656 74.8 46.5415 75.841 50.5226 77.7145L53.0774 72.2855ZM33.6 68.8C29.0556 68.8 24.902 69.4388 21.1838 70.7773L23.2162 76.4227C26.1646 75.3612 29.611 74.8 33.6 74.8V68.8ZM19.2552 74.1726C20.3651 79.8808 23.7151 84.4654 28.9525 87.9071L32.2475 82.8929C28.1516 80.2013 25.9016 76.9192 25.1448 73.0274L19.2552 74.1726ZM28.9525 87.9071C34.1099 91.2963 39.8163 93 46 93V87C40.9837 87 36.4234 85.637 32.2475 82.8929L28.9525 87.9071ZM34.1839 16.8958L70.3839 7.09576L68.8161 1.30423L32.6161 11.1042L34.1839 16.8958ZM66.655 3.62815L62.655 24.2282L68.545 25.3718L72.545 4.77184L66.655 3.62815ZM64.9579 21.8695L29.3579 29.6695L30.6421 35.5305L66.2421 27.7305L64.9579 21.8695ZM32.9511 33.1394L36.3511 14.5394L30.4489 13.4605L27.0489 32.0605L32.9511 33.1394ZM95.7797 109L95.4628 106.017L93.6329 106.211L92.9768 107.93L95.7797 109ZM150.38 103.2L153.209 102.202L152.42 99.9664L150.063 100.217L150.38 103.2ZM151.58 106.6L154.396 107.635L154.768 106.621L154.409 105.602L151.58 106.6ZM142.98 130L144.932 132.278L145.526 131.769L145.796 131.035L142.98 130ZM138.78 133.6L139.097 136.583L140.024 136.485L140.732 135.878L138.78 133.6ZM84.1797 139.4L81.3768 138.33L79.6332 142.9L84.4966 142.383L84.1797 139.4ZM96.0966 111.983L150.697 106.183L150.063 100.217L95.4628 106.017L96.0966 111.983ZM147.551 104.198L148.751 107.598L154.409 105.602L153.209 102.202L147.551 104.198ZM148.764 105.565L140.164 128.965L145.796 131.035L154.396 107.635L148.764 105.565ZM141.027 127.722L136.827 131.322L140.732 135.878L144.932 132.278L141.027 127.722ZM138.463 130.617L83.8628 136.417L84.4966 142.383L139.097 136.583L138.463 130.617ZM86.9826 140.47L98.5826 110.07L92.9768 107.93L81.3768 138.33L86.9826 140.47ZM150.272 103L149.955 100.017L148.125 100.211L147.469 101.93L150.272 103ZM204.872 97.2L207.701 96.2015L206.912 93.9664L204.555 94.2168L204.872 97.2ZM206.072 100.6L208.888 101.635L209.261 100.621L208.901 99.6015L206.072 100.6ZM197.472 124L199.424 126.278L200.018 125.769L200.288 125.035L197.472 124ZM193.272 127.6L193.589 130.583L194.516 130.485L195.224 129.878L193.272 127.6ZM138.672 133.4L135.869 132.33L134.125 136.9L138.989 136.383L138.672 133.4ZM150.589 105.983L205.189 100.183L204.555 94.2168L149.955 100.017L150.589 105.983ZM202.043 98.1985L203.243 101.598L208.901 99.6015L207.701 96.2015L202.043 98.1985ZM203.256 99.5651L194.656 122.965L200.288 125.035L208.888 101.635L203.256 99.5651ZM195.52 121.722L191.32 125.322L195.224 129.878L199.424 126.278L195.52 121.722ZM192.955 124.617L138.355 130.417L138.989 136.383L193.589 130.583L192.955 124.617ZM141.475 134.47L153.075 104.07L147.469 101.93L135.869 132.33L141.475 134.47ZM204.764 97L204.447 94.0168L202.617 94.2112L201.961 95.9305L204.764 97ZM259.364 91.2L262.193 90.2015L261.404 87.9664L259.047 88.2168L259.364 91.2ZM260.564 94.6L263.38 95.6349L263.753 94.6206L263.393 93.6015L260.564 94.6ZM251.964 118L253.916 120.278L254.51 119.769L254.78 119.035L251.964 118ZM247.764 121.6L248.081 124.583L249.008 124.485L249.716 123.878L247.764 121.6ZM193.164 127.4L190.361 126.33L188.618 130.9L193.481 130.383L193.164 127.4ZM205.081 99.9832L259.681 94.1832L259.047 88.2168L204.447 94.0168L205.081 99.9832ZM256.535 92.1985L257.735 95.5985L263.393 93.6015L262.193 90.2015L256.535 92.1985ZM257.748 93.5651L249.148 116.965L254.78 119.035L263.38 95.6349L257.748 93.5651ZM250.012 115.722L245.812 119.322L249.716 123.878L253.916 120.278L250.012 115.722ZM247.447 118.617L192.847 124.417L193.481 130.383L248.081 124.583L247.447 118.617ZM195.967 128.47L207.567 98.0695L201.961 95.9305L190.361 126.33L195.967 128.47ZM316.656 89L319.472 90.0349L319.845 89.0206L319.485 88.0015L316.656 89ZM308.056 112.4L310.009 114.678L310.602 114.169L310.872 113.435L308.056 112.4ZM303.856 116L304.172 118.983L305.1 118.885L305.809 118.278L303.856 116ZM279.256 118.6L276.26 118.458L276.095 121.951L279.572 121.583L279.256 118.6ZM280.456 93.2L283.453 93.3416L277.567 92.3911L280.456 93.2ZM272.056 117L273.005 119.846L274.215 119.443L274.764 118.292L272.056 117ZM247.656 122L244.853 120.93L243.116 125.483L247.963 124.984L247.656 122ZM259.256 91.6L258.914 88.6196L257.103 88.8274L256.453 90.5305L259.256 91.6ZM280.656 87.6L281.472 90.4869L283.566 89.8952L283.654 87.7211L280.656 87.6ZM281.456 67.8L280.082 65.1334L278.529 65.9337L278.459 67.6789L281.456 67.8ZM300.856 57.8L303.853 57.9427L304.1 52.7529L299.482 55.1334L300.856 57.8ZM299.456 87.2L296.46 87.0573L296.294 90.5312L299.755 90.1851L299.456 87.2ZM315.456 85.6L318.285 84.6015L317.501 82.3805L315.158 82.6149L315.456 85.6ZM261.456 141.8L260.672 138.904L258.845 139.399L258.505 141.261L261.456 141.8ZM297.656 132L300.601 132.572L301.519 127.846L296.872 129.104L297.656 132ZM293.656 152.6L294.298 155.53L296.225 155.108L296.601 153.172L293.656 152.6ZM258.056 160.4L255.105 159.861L254.294 164.295L258.698 163.33L258.056 160.4ZM313.84 87.9651L305.24 111.365L310.872 113.435L319.472 90.0349L313.84 87.9651ZM306.104 110.122L301.904 113.722L305.809 118.278L310.009 114.678L306.104 110.122ZM303.541 113.017L278.941 115.617L279.572 121.583L304.172 118.983L303.541 113.017ZM282.253 118.742L283.453 93.3416L277.46 93.0584L276.26 118.458L282.253 118.742ZM277.567 92.3911C274.79 102.311 272.044 110.06 269.349 115.708L274.764 118.292C277.668 112.206 280.523 104.089 283.345 94.0089L277.567 92.3911ZM271.108 114.154C264.152 116.472 256.24 118.101 247.349 119.016L247.963 124.984C257.206 124.033 265.56 122.328 273.005 119.846L271.108 114.154ZM250.459 123.07L262.059 92.6695L256.453 90.5305L244.853 120.93L250.459 123.07ZM259.598 94.5804C267.849 93.6336 275.147 92.2744 281.472 90.4869L279.84 84.7131C273.899 86.3923 266.93 87.6997 258.914 88.6196L259.598 94.5804ZM283.654 87.7211L284.454 67.9211L278.459 67.6789L277.659 87.4789L283.654 87.7211ZM282.831 70.4666L302.231 60.4666L299.482 55.1334L280.082 65.1334L282.831 70.4666ZM297.86 57.6573L296.46 87.0573L302.453 87.3427L303.853 57.9427L297.86 57.6573ZM299.755 90.1851L315.755 88.5851L315.158 82.6149L299.158 84.2149L299.755 90.1851ZM312.627 86.5985L313.827 89.9985L319.485 88.0015L318.285 84.6015L312.627 86.5985ZM262.24 144.696L298.44 134.896L296.872 129.104L260.672 138.904L262.24 144.696ZM294.711 131.428L290.711 152.028L296.601 153.172L300.601 132.572L294.711 131.428ZM293.014 149.67L257.414 157.47L258.698 163.33L294.298 155.53L293.014 149.67ZM261.007 160.939L264.407 142.339L258.505 141.261L255.105 159.861L261.007 160.939ZM342.311 64L345.294 64.3141L345.633 61.1023L342.405 61.0015L342.311 64ZM329.311 111.4L330.184 114.27L331.431 113.891L332.005 112.721L329.311 111.4ZM303.711 116L300.908 114.93L299.158 119.518L304.038 118.982L303.711 116ZM315.311 85.6L314.954 82.6214L313.154 82.8373L312.508 84.5305L315.311 85.6ZM331.511 82.6L332.347 85.481L333.995 85.0027L334.418 83.34L331.511 82.6ZM335.911 63.8L336.005 60.8015L333.48 60.7226L332.972 63.1972L335.911 63.8ZM330.511 47.2L328.679 49.5753L330.369 50.8791L332.154 49.7099L330.511 47.2ZM316.511 30L314.847 27.5038L312.479 29.0827L313.931 31.5306L316.511 30ZM335.111 17.6L337.674 16.0402L336.048 13.3697L333.447 15.1038L335.111 17.6ZM337.911 22.2L335.348 23.7598L335.348 23.7598L337.911 22.2ZM347.311 36.2L348.954 38.7099L351.701 36.9117L349.663 34.3379L347.311 36.2ZM339.327 63.6859C337.492 81.1225 333.24 96.5732 326.617 110.079L332.005 112.721C338.981 98.4935 343.397 82.3442 345.294 64.3141L339.327 63.6859ZM328.437 108.53C322.564 110.317 314.243 111.826 303.384 113.018L304.038 118.982C315.046 117.774 323.791 116.216 330.184 114.27L328.437 108.53ZM306.514 117.07L318.114 86.6695L312.508 84.5305L300.908 114.93L306.514 117.07ZM315.668 88.5786C322.418 87.7687 327.996 86.7444 332.347 85.481L330.675 79.719C326.759 80.8556 321.537 81.8313 314.954 82.6214L315.668 88.5786ZM334.418 83.34C336.292 75.9786 337.771 69.6635 338.85 64.4028L332.972 63.1972C331.918 68.3365 330.463 74.5547 328.604 81.86L334.418 83.34ZM335.817 66.7985L342.217 66.9985L342.405 61.0015L336.005 60.8015L335.817 66.7985ZM332.343 44.8246C328.096 41.5482 323.659 36.1703 319.091 28.4694L313.931 31.5306C318.696 39.563 323.592 45.6518 328.679 49.5753L332.343 44.8246ZM318.175 32.4961L336.775 20.0961L333.447 15.1038L314.847 27.5038L318.175 32.4961ZM332.548 19.1598L335.348 23.7598L340.474 20.6402L337.674 16.0402L332.548 19.1598ZM335.348 23.7598C339.105 29.9322 342.313 34.7199 344.959 38.0621L349.663 34.3379C347.242 31.2801 344.183 26.7344 340.474 20.6402L335.348 23.7598ZM345.668 33.6901L328.868 44.6901L332.154 49.7099L348.954 38.7099L345.668 33.6901Z" fill="#410F86" mask="url(#path-5-outside-2_13_26)"/>
<defs>
<filter id="filter0_d_13_26" x="3" y="7.04633" width="354.701" height="175.249" filterUnits="userSpaceOnUse" color-interpolation-filters="sRGB">
<feFlood flood-opacity="0" result="BackgroundImageFix"/>
<feColorMatrix in="SourceAlpha" type="matrix" values="0 0 0 0 0 0 0 0 0 0 0 0 0 0 0 0 0 0 127 0" result="hardAlpha"/>
<feOffset dx="6" dy="11"/>
<feComposite in2="hardAlpha" operator="out"/>
<feColorMatrix type="matrix" values="0 0 0 0 0 0 0 0 0 0 0 0 0 0 0 0 0 0 0.8 0"/>
<feBlend mode="normal" in2="BackgroundImageFix" result="effect1_dropShadow_13_26"/>
<feBlend mode="normal" in="SourceGraphic" in2="effect1_dropShadow_13_26" result="shape"/>
</filter>
</defs>
</svg>
